# xmcd
#
# Track frame offsets:
#	150
#	14756
#	32222
#	49080
#	66645
#	88375
#	106309
#	121591
#	143711
#	161679
#	178434
#	196826
#	215436
#	231004
#	251759
#	269433
#	289310
#	305086
#	325203
#
# Disc length: 4597
#
# Revision: 1
# Processed by: cddbd v1.5.1PL0 Copyright (c) Steve Scherf et al.
# Submitted via: CDex 1.50Beta7
# Normalized: r0:TDELIM( - )
#
DISCID=2c11f313
DTITLE=Various Artist - Modern Love 2
DYEAR=2003
DGENRE=Blues
TTITLE0=Blue - Best in me
TTITLE1=Britney Spears - I'm not a girl, not yet a woman
TTITLE2=M2M - The day you went away
TTITLE3=Westlife - My love
TTITLE4=Backstreet Boys - I'll never break your heart
TTITLE5=The Corrs - All the love in the world -remix-
TTITLE6=Robbie Williams - Better man
TTITLE7=N'Sync - Gone
TTITLE8=Destiny's Child - Emotion
TTITLE9=Faith Hill - There you'll be
TTITLE10=Boyzone - Words
TTITLE11=Natalie Imbruglia - Torn
TTITLE12=Craig David - Walking away
TTITLE13=Phil Collins - True colors
TTITLE14=Josh Croban - To where you are
TTITLE15=Brian McKnight - Back at one
TTITLE16=Sixpence none the Richer - Kiss me
TTITLE17=Binocular - Deep
TTITLE18=Daniel Bedingfield - If you're not the one
EXTD=YEAR: 2003
EXTT0=
EXTT1=
EXTT2=
EXTT3=
EXTT4=
EXTT5=
EXTT6=
EXTT7=
EXTT8=
EXTT9=
EXTT10=
EXTT11=
EXTT12=
EXTT13=
EXTT14=
EXTT15=
EXTT16=
EXTT17=
EXTT18=
PLAYORDER=
